# xmcd
#
# Track frame offsets: 
#        150
#        21317
#        39273
#        66809
#        86058
#        112753
#        132700
#        156896
#        177078
#        193696
#
# Disc length: 2891 seconds
#
# Revision: 0
# Processed by: cddbd v1.5.2PL0 Copyright (c) Steve Scherf et al.
# Submitted via: ExactAudioCopy v1.0b3
#
DISCID=810b490a
DTITLE=Truong Vu - Rung La Thay Chua
DYEAR=2002
DGENRE=
TTITLE0=Tinh xua vung dai
TTITLE1=Rung la thay chua
TTITLE2=Goi nho que huong
TTITLE3=Canh buom chuyen ben
TTITLE4=Mua Xuan cua toi (Xuan ngheo)
TTITLE5=Bong mat
TTITLE6=Buon trong ky niem
TTITLE7=Sau lan hen cuoi
TTITLE8=Bac trang lua hong
TTITLE9=Co bao gio
EXTD=
EXTT0=
EXTT1=
EXTT2=
EXTT3=
EXTT4=
EXTT5=
EXTT6=
EXTT7=
EXTT8=
EXTT9=
PLAYORDER=
